<svg xmlns="http://www.w3.org/2000/svg" xmlns:xlink="http://www.w3.org/1999/xlink" version="1.1" x="0px" y="0px"
  viewBox="0 0 90 90" enable-background="new 0 0 90 90" xml:space="preserve">
  <!-- <rect x="0px" y="0px" width="100%" height="100%" fill="gold"/> -->

  <path
    d="M40.483,22.201l0.688,19.79c0.02,0.605,0.443,0.929,0.885,0.996l19.213,2.848c5.208,0.771,5.203,1.09,5.197,6.396  l0.027,9.303c0.011,5.172-1.511,7.115-2.984,8.989c-1.25,1.594-2.543,3.235-2.563,5.818c-0.016,2.584-0.907,4.803-7.844,4.803  h-9.869c-6.934,0-7.824-2.219-7.824-4.152l-0.005-0.004l0.005-0.005c-0.036-3.319-1.75-5.026-3.4-6.672  c-1.901-1.891-3.865-3.844-3.865-8.782c0-0.74-0.011-1.489-0.02-2.229c-0.048-3.865-0.1-7.86,1.348-9.328  c0.396-0.396,0.902-0.589,1.568-0.615l-0.145,6.75c-0.017,0.573,0.437,1.052,1.02,1.057c0.579,0.005,1.047-0.448,1.057-1.014  l0.751-33.958c0.041-2.016,1.702-2.932,3.353-2.937C38.724,19.248,40.41,20.158,40.483,22.201z M31.639,22.144l-0.551,25.128  c-1.255,0.027-2.296,0.434-3.094,1.24c-2.057,2.088-2.005,6.322-1.948,10.812c0.011,0.735,0.021,1.469,0.021,2.204  c0,5.801,2.479,8.271,4.473,10.255c1.541,1.537,2.754,2.745,2.787,5.204c0,0.004,0,0.004,0,0.004c0,6.229,7.459,6.229,9.907,6.229  h9.869c2.448,0,9.896,0,9.907-6.219c0.025-2.514,0.957-3.697,2.129-5.191c1.538-1.954,3.449-4.385,3.432-10.282l-0.025-8.36v-0.937  c0.011-5.754-0.286-7.459-6.975-8.454l-18.353-2.724l-0.656-18.926c-0.121-3.26-2.838-4.959-5.495-4.948  C34.415,17.19,31.718,18.898,31.639,22.144z" />
  <path
    d="M26.926,23.816h-4.563c-0.572,0-1.036-0.47-1.036-1.043c0-0.572,0.464-1.041,1.036-1.041h4.563  c0.573,0,1.041,0.469,1.041,1.041C27.967,23.346,27.499,23.816,26.926,23.816" />
  <path
    d="M49.967,23.816h-4.563c-0.572,0-1.041-0.47-1.041-1.043c0-0.572,0.469-1.041,1.041-1.041h4.563  c0.574,0,1.043,0.469,1.043,1.041C51.01,23.346,50.541,23.816,49.967,23.816" />
  <path
    d="M29.634,17.253c-0.265,0-0.531-0.104-0.733-0.309l-3.229-3.244c-0.407-0.407-0.407-1.063,0-1.469  c0.405-0.407,1.066-0.407,1.467,0.005l3.235,3.24c0.401,0.405,0.401,1.067-0.005,1.467C30.166,17.149,29.9,17.253,29.634,17.253" />
  <path
    d="M42.697,17.253c-0.266,0-0.525-0.104-0.73-0.309c-0.41-0.4-0.41-1.057-0.005-1.467l3.224-3.246  c0.402-0.407,1.063-0.407,1.47,0c0.407,0.401,0.407,1.063,0.005,1.469l-3.224,3.244C43.234,17.149,42.962,17.253,42.697,17.253" />
  <path
    d="M36.166,13.502c-0.573,0-1.037-0.467-1.037-1.041V7.878c0-0.573,0.464-1.043,1.037-1.043c0.578,0,1.042,0.47,1.042,1.043  v4.583C37.207,13.035,36.743,13.502,36.166,13.502" />
</svg>