<svg xmlns="http://www.w3.org/2000/svg" xmlns:xlink="http://www.w3.org/1999/xlink" xmlns:serif="http://www.serif.com/"
  viewBox="0 0 25 25" version="1.1" xml:space="preserve" style="" x="0px" y="0px" >
  <!-- <rect x="0px" y="0px" width="100%" height="100%" fill="gold"/> -->
  <g transform="translate(-51,-147)">
    <path stroke-width="0.05" fill-rule="evenodd" clip-rule="evenodd" stroke-linejoin="round" stroke-miterlimit="2"
      d="M70,156L70,151L58,151L58,156L55,156L55,166.5L58.442,166.5C58.462,166.5 58.481,166.499 58.5,166.497L58.5,169L69.5,169L69.5,166.497C69.519,166.499 69.538,166.5 69.558,166.5L73,166.5L73,156L70,156ZM68.5,163L68.5,168C68.5,168 59.5,168 59.5,168C59.5,168 59.5,163 59.5,163L68.5,163ZM61.5,167L66.5,167C66.776,167 67,166.776 67,166.5C67,166.224 66.776,166 66.5,166L61.5,166C61.224,166 61,166.224 61,166.5C61,166.776 61.224,167 61.5,167ZM58.503,157L56,157C56,157 56,165.5 56,165.5L58.442,165.5C58.462,165.5 58.481,165.501 58.5,165.503L58.5,162L69.5,162L69.5,165.503C69.519,165.501 69.538,165.5 69.558,165.5C69.558,165.5 72,165.5 72,165.5C72,165.5 72,157 72,157L58.503,157ZM61.5,165L66.5,165C66.776,165 67,164.776 67,164.5C67,164.224 66.776,164 66.5,164L61.5,164C61.224,164 61,164.224 61,164.5C61,164.776 61.224,165 61.5,165ZM69,158C68.448,158 68,158.448 68,159C68,159.552 68.448,160 69,160C69.552,160 70,159.552 70,159C70,158.448 69.552,158 69,158ZM69,156L69,152C69,152 59,152 59,152L59,156L69,156Z" />
  </g>
</svg>