<svg xmlns="http://www.w3.org/2000/svg" xmlns:xlink="http://www.w3.org/1999/xlink" version="1.1" x="0px" y="0px"
  viewBox="0 0 100 100" enable-background="new 0 0 100 100" xml:space="preserve">
  <!-- <rect x="0px" y="0px" width="100%" height="100%" fill="gold"/> -->

  <g>
    <g>
      <g>
        <path fill="#000000"
          d="M63.829,67.223c-0.553,0-1.085-0.287-1.384-0.797c-0.441-0.758-0.18-1.731,0.582-2.174     c5.088-2.942,8.24-8.408,8.24-14.254c0-5.846-3.152-11.308-8.236-14.249c-0.762-0.439-1.025-1.415-0.582-2.177     c0.438-0.762,1.407-1.029,2.174-0.579c6.066,3.507,9.832,10.024,9.832,17.004c0,6.98-3.768,13.5-9.832,17.012     C64.373,67.155,64.101,67.223,63.829,67.223z" />
      </g>
      <g>
        <path fill="#000000"
          d="M68.34,75.037c-0.55,0-1.085-0.287-1.38-0.798c-0.442-0.758-0.18-1.731,0.582-2.174     C75.412,67.513,80.307,59.055,80.307,50c0-9.059-4.895-17.51-12.765-22.07c-0.762-0.439-1.024-1.415-0.582-2.173     c0.438-0.762,1.408-1.025,2.174-0.581C77.988,30.301,83.489,39.809,83.489,50c0,10.188-5.501,19.7-14.355,24.821     C68.887,74.969,68.611,75.037,68.34,75.037z" />
      </g>
      <g>
        <path fill="#000000"
          d="M72.852,82.851c-0.551,0-1.085-0.283-1.38-0.794c-0.443-0.762-0.18-1.739,0.582-2.174     C82.711,73.713,89.332,62.261,89.332,50c0-12.265-6.621-23.711-17.278-29.883c-0.762-0.443-1.025-1.416-0.582-2.173     c0.438-0.762,1.407-1.03,2.174-0.582C85.288,24.097,92.52,36.601,92.52,50c0,13.394-7.231,25.902-18.872,32.64     C73.397,82.783,73.123,82.851,72.852,82.851z" />
      </g>
    </g>
    <g>
      <path fill="#000000"
        d="M54.272,13.875c0-0.208-0.044-0.411-0.128-0.606c-0.159-0.39-0.471-0.703-0.861-0.867    c-0.387-0.155-0.826-0.155-1.217,0c-0.195,0.084-0.373,0.2-0.519,0.352L26.476,37.827H9.073c-0.881,0-1.593,0.711-1.593,1.59    v21.161c0,0.877,0.712,1.591,1.593,1.591h17.403l25.072,25.073c0.146,0.147,0.323,0.268,0.519,0.347    c0.195,0.08,0.4,0.124,0.61,0.124c0.207,0,0.411-0.044,0.606-0.124c0.391-0.159,0.702-0.471,0.861-0.861    c0.084-0.195,0.128-0.398,0.128-0.61V13.875z M27.745,59.106c-0.196-0.08-0.403-0.124-0.606-0.124H10.667V41.009h16.471    c0.206,0,0.411-0.041,0.606-0.121c0.195-0.08,0.373-0.2,0.519-0.347l22.822-22.824v64.552L28.263,59.453    C28.115,59.306,27.938,59.186,27.745,59.106z" />
    </g>
  </g>
</svg>